<svg width="40" height="40" viewBox="0 0 40 40" fill="none" xmlns="http://www.w3.org/2000/svg">
<circle cx="20" cy="20" r="20" fill="#9EAFC2"/>
<path d="M18.4644 9.50833L18.1775 13.691L18.1493 14.2458L18.0221 14.2591C11.7516 14.9509 7 19.9851 7 26.1501C7 26.758 7.04804 27.3607 7.14412 27.9554C7.53832 30.4099 7.83503 30.6481 9.6478 28.6179C10.0971 28.1241 10.5885 27.6659 11.1172 27.2476C13.0147 25.7708 15.3744 24.9211 17.8342 24.829L18.1535 24.8223L18.2397 26.4574L18.4743 29.5771C18.5873 30.6467 19.7826 31.3771 20.8819 30.7931C21.3792 30.5297 21.8638 30.2476 22.3513 29.9683C24.8762 28.4809 27.24 26.7713 29.543 24.9953C30.8994 23.931 32.0862 22.9226 33.0979 22.0046C33.5641 21.5749 34.0304 21.1452 34.4811 20.7008C35.1339 20.0569 35.1989 18.9913 34.515 18.3168C32.9411 16.7669 30.7171 14.8259 27.9492 12.7664C25.7055 11.1141 23.3855 9.57085 20.9271 8.2152C19.7445 7.5806 18.5717 8.45067 18.4644 9.50833Z" fill="#48556A"/>
</svg>
